<svg width="24" height="24" viewBox="0 0 24 24" fill="none" xmlns="http://www.w3.org/2000/svg">
<g clip-path="url(#clip0_3070_498)">
<rect width="24" height="24" rx="2" fill="white"/>
<path d="M15.91 7.35006L13.1483 8.78184C12.9126 8.45069 12.6451 8.18672 12.3458 7.98992C12.0442 7.78891 11.7203 7.65283 11.3741 7.58166C11.0279 7.51049 10.6678 7.50518 10.2938 7.56572C9.92409 7.62407 9.55427 7.74914 9.18436 7.94092C8.516 8.28742 8.01989 8.75529 7.69604 9.34452C7.37001 9.92955 7.23382 10.6082 7.28748 11.3803C7.33897 12.1483 7.5968 12.98 8.06098 13.8753C8.53824 14.7959 9.07584 15.4985 9.67378 15.9832C10.2759 16.4657 10.9078 16.7381 11.5695 16.8004C12.2311 16.8627 12.8877 16.725 13.5392 16.3872C13.9049 16.1976 14.2183 15.9738 14.4792 15.7159C14.7443 15.4557 14.9509 15.17 15.0988 14.8587C15.2445 14.5431 15.3275 14.2094 15.3478 13.8576C15.3722 13.5035 15.3267 13.1378 15.211 12.7605L17.9793 11.3413C18.2151 11.971 18.3328 12.6353 18.3325 13.3342C18.3341 14.0267 18.2076 14.7136 17.9529 15.395C17.7001 16.07 17.3092 16.7047 16.78 17.2991C16.2528 17.887 15.5752 18.3957 14.7471 18.825C13.5953 19.4221 12.4304 19.6954 11.2522 19.6449C10.0782 19.5922 8.9724 19.2081 7.93483 18.4927C6.90146 17.7751 6.02084 16.7143 5.29297 15.3104C4.56291 13.9022 4.20664 12.5669 4.22416 11.3045C4.24167 10.0421 4.57038 8.91698 5.21029 7.92923C5.84802 6.93727 6.73436 6.14709 7.86931 5.55868C8.61754 5.17077 9.3656 4.91628 10.1135 4.79521C10.8656 4.67195 11.5943 4.68352 12.2995 4.8299C13.0025 4.97208 13.66 5.25258 14.2718 5.6714C14.8878 6.08804 15.4339 6.6476 15.91 7.35006Z" fill="black"/>
</g>
<defs>
<clipPath id="clip0_3070_498">
<rect width="24" height="24" rx="2" fill="white"/>
</clipPath>
</defs>
</svg>
